<svg xmlns="http://www.w3.org/2000/svg" viewBox="0 0 48 48" width="48" height="48">
  <defs>
    <linearGradient id="quillGrad" x1="0%" y1="0%" x2="100%" y2="100%">
      <stop offset="0%" style="stop-color:#6B4423"/>
      <stop offset="100%" style="stop-color:#D4A574"/>
    </linearGradient>
  </defs>
  <path d="M38 4c-4 6-10 14-16 22-2 3-4 6-5 8l-3 8c0 1 1 2 2 1l7-5c2-1 5-3 7-6C36 24 40 14 42 8c1-3-2-6-4-4z" fill="url(#quillGrad)" stroke="#5C3D1E" stroke-width="0.8"/>
  <path d="M17 34c-1 0-3 2-5 4-1 1 0 2 1 2 2-1 4-3 5-4" fill="#5C3D1E" opacity="0.7"/>
  <path d="M22 26c3-1 6 0 8-2" stroke="#D4A574" stroke-width="0.6" fill="none" stroke-linecap="round"/>
</svg>
